<svg xmlns="http://www.w3.org/2000/svg" xmlns:xlink="http://www.w3.org/1999/xlink" width="55.112" height="89" viewBox="0 0 55.112 89">
  <defs>
    <clipPath id="clip-path">
      <rect id="Rectangle_117" data-name="Rectangle 117" width="55" height="89" transform="translate(-0.011)" fill="none"/>
    </clipPath>
  </defs>
  <g id="Groupe_286" data-name="Groupe 286" transform="translate(0.011)">
    <g id="Groupe_285" data-name="Groupe 285" transform="translate(0 0)">
      <g id="Groupe_284" data-name="Groupe 284" clip-path="url(#clip-path)">
        <path id="Tracé_670" data-name="Tracé 670" d="M382.017,376.323l.077,0a1.309,1.309,0,0,0,1.231-1.383c-.893-15.286-.494-36.859-.489-37.069a35.47,35.47,0,0,1,3-12.193c3.738-8.3,10.124-13.243,18.981-14.684,7.8-1.27,14.2.756,19.019,6.019a1.309,1.309,0,1,0,1.932-1.768c-5.449-5.957-12.64-8.256-21.371-6.836-12.181,1.98-18.115,9.9-20.949,16.193a37.688,37.688,0,0,0-3.23,13.211c0,.216-.405,21.889.493,37.279a1.31,1.31,0,0,0,1.307,1.233Zm0,0" transform="translate(-380.364 -308.604)"/>
      </g>
    </g>
    <path id="Tracé_671" data-name="Tracé 671" d="M432.514,357.229a1.309,1.309,0,1,0-2.25,1.338c3.729,6.269,5.867,15.142,5.867,24.342,0,10.159-7,18.684-13.774,26.929-3.741,4.554-7.609,9.264-10.134,14.124-3.706,7.134-9.514,8.127-12.64,8.08-4.782-.067-9.421-2.53-11.029-5.854-.419-.867-1.027-3.04-1.536-8.474a1.309,1.309,0,1,0-2.607.244c.445,4.742,1.029,7.807,1.786,9.37,2.049,4.234,7.538,7.25,13.35,7.332l.236,0a15.882,15.882,0,0,0,7.985-2.115,17.743,17.743,0,0,0,6.779-7.378c2.4-4.617,6.01-9.014,9.834-13.67,7.065-8.6,14.369-17.494,14.369-28.591,0-9.657-2.273-19.017-6.236-25.68Zm0,0" transform="translate(-383.648 -345.882)"/>
    <path id="Tracé_672" data-name="Tracé 672" d="M423.66,376.437c-2.233,1.2-5.012,2.686-5.012,7.243a13.914,13.914,0,0,0,1.4,6.785c1,1.808,3.093,3.963,7.41,3.963,17.069,0,28.706-19.865,28.706-31.093a42.222,42.222,0,0,0-4.293-18.739c-3.46-6.589-8.494-10.073-14.558-10.073-6.774,0-12.379,3.717-15.378,10.2a1.309,1.309,0,0,0,2.377,1.1c2.59-5.6,7.208-8.679,13-8.679,3.507,0,8.477,1.5,12.239,8.672a39.487,39.487,0,0,1,3.993,17.521c0,10.091-10.76,28.474-26.087,28.474-4.285,0-6.195-2.507-6.195-8.129,0-2.99,1.444-3.763,3.631-4.935,1.99-1.067,4.465-2.394,5.483-5.863.925-3.156-1.044-6.045-3.128-9.1-.671-.985-1.368-2.008-2.008-3.088a32.919,32.919,0,0,0,8.786,2.906,5.747,5.747,0,0,1,4.1,2.578c1.832,3,.554,7.5.542,7.542a1.309,1.309,0,1,0,2.511.741c.067-.228,1.621-5.637-.811-9.635a8.327,8.327,0,0,0-5.842-3.8c-6.406-1.239-10.177-3.664-11.288-4.783a13.13,13.13,0,0,1-.427-5.4,1.309,1.309,0,0,0-2.6-.333c-.818,6.393,2.338,11.025,4.874,14.746,1.875,2.75,3.355,4.924,2.779,6.891-.708,2.417-2.33,3.286-4.207,4.293Zm0,0" transform="translate(-409.92 -328.953)"/>
  </g>
</svg>
