<svg id="Groupe_334" data-name="Groupe 334" xmlns="http://www.w3.org/2000/svg" width="30.073" height="27.823" viewBox="0 0 30.073 27.823">
  <g id="Groupe_333" data-name="Groupe 333" transform="translate(0 0)">
    <path id="Tracé_769" data-name="Tracé 769" d="M-130.155-132.326l-6.21-5.4a.427.427,0,0,0-.6.042.428.428,0,0,0,.042.6l5.816,5.062h-2.637l-10.786-9.387a.659.659,0,0,0-.861,0l-10.786,9.387h-2.637l4.016-3.495h0l3.788-3.3h0l6.05-5.265,6.495,5.652a.428.428,0,0,0,.6-.042.428.428,0,0,0-.042-.6l-6.626-5.767a.659.659,0,0,0-.861,0l-4.687,4.079v-1.211a.67.67,0,0,0-.67-.669h-5.027a.67.67,0,0,0-.669.669v1.259a.67.67,0,0,0,.669.67h.268v4.007l-4.263,3.71a.655.655,0,0,0-.185.73.655.655,0,0,0,.618.429h2.89v7.6a.428.428,0,0,0,.428.428.428.428,0,0,0,.428-.428V-131.4l10.63-9.251,10.63,9.251v13.143a.225.225,0,0,1-.224.224h-6.374v-10.8a1.032,1.032,0,0,0-1.031-1.031h-5.47a1.032,1.032,0,0,0-1.031,1.031v10.8h-6.905a.225.225,0,0,1-.225-.225v-3.249a.428.428,0,0,0-.428-.428.428.428,0,0,0-.428.428v3.249a1.081,1.081,0,0,0,1.08,1.08h20.811a1.081,1.081,0,0,0,1.08-1.08v-12.911h2.89a.654.654,0,0,0,.618-.429.655.655,0,0,0-.185-.729Zm-21.568-7.006-2.932,2.552v-3.262h2.932Zm-3.869-1.566v-.887h4.655v.887Zm13.8,22.866h-5.82v-10.8a.175.175,0,0,1,.175-.175h5.47a.175.175,0,0,1,.175.175Zm0,0" transform="translate(160 145)" fill="#cc0f37"/>
  </g>
</svg>
