<svg xmlns="http://www.w3.org/2000/svg" width="137.251" height="115.466" viewBox="0 0 137.251 115.466">
  <g id="Groupe_406" data-name="Groupe 406" transform="translate(-225 -424)">
    <path id="Tracé_639" data-name="Tracé 639" d="M302.978,411.417a63.456,63.456,0,0,0,6.733,33.661c8.781,16.684,21.367,29.271,40.1,28.393s40.394-18.441,47.419-45.37-4.39-54.444-33.076-54.444S307.076,387.122,302.978,411.417Z" transform="translate(-77.77 50.343)" fill="rgba(204,15,55,0.2)"/>
    <g id="Groupe_279" data-name="Groupe 279" transform="translate(281 473.59)">
      <path id="Tracé_642" data-name="Tracé 642" d="M432.5,411.523H386.23a1.191,1.191,0,0,0,0,2.382H432.5a1.191,1.191,0,1,0,0-2.382Zm0,0" transform="translate(-368.738 -397.447)"/>
      <path id="Tracé_643" data-name="Tracé 643" d="M432.5,472.82H386.23a1.191,1.191,0,0,0,0,2.382H432.5a1.191,1.191,0,1,0,0-2.382Zm0,0" transform="translate(-368.738 -445.774)"/>
      <path id="Tracé_644" data-name="Tracé 644" d="M473.849,512.6H457.918a1.191,1.191,0,0,0,0,2.382h15.931a1.191,1.191,0,0,0,0-2.382Zm0,0" transform="translate(-425.258 -477.139)"/>
      <path id="Tracé_645" data-name="Tracé 645" d="M476.3,442.047H441.789a1.191,1.191,0,0,0,0,2.382H476.3a1.191,1.191,0,0,0,0-2.382Zm0,0" transform="translate(-412.541 -421.513)"/>
      <path id="Tracé_646" data-name="Tracé 646" d="M392.444,442.047H386.23a1.191,1.191,0,0,0,0,2.382h6.214a1.191,1.191,0,0,0,0-2.382Zm0,0" transform="translate(-368.738 -421.513)"/>
      <path id="Tracé_647" data-name="Tracé 647" d="M404.379,379.218a1.467,1.467,0,0,0-1.035-.421h0a4.494,4.494,0,0,1-4.5-4.3,1.463,1.463,0,0,0-1.466-1.4H342.144a1.464,1.464,0,0,0-1.466,1.4,4.53,4.53,0,0,1-4.292,4.291,1.464,1.464,0,0,0-1.4,1.466v30.79a1.464,1.464,0,0,0,1.4,1.466,4.531,4.531,0,0,1,4.292,4.292,1.463,1.463,0,0,0,1.466,1.4h35.163a1.191,1.191,0,1,0,0-2.382H342.963a6.835,6.835,0,0,0-5.593-5.593V381.077a6.836,6.836,0,0,0,5.593-5.593h53.6a6.87,6.87,0,0,0,5.876,5.635v20.229a1.191,1.191,0,1,0,2.382,0V380.265a1.455,1.455,0,0,0-.439-1.046Zm0,0" transform="translate(-329.278 -367.156)"/>
      <path id="Tracé_648" data-name="Tracé 648" d="M385.945,345H311.306A3.311,3.311,0,0,0,308,348.307v50.38a3.31,3.31,0,0,0,3.306,3.306h50l-1.77,3.709a1.414,1.414,0,0,0,1.5,2.006l3.3-.53,1.837,3.018a1.414,1.414,0,0,0,1.208.679c.024,0,.048,0,.072,0a1.413,1.413,0,0,0,1.2-.8l3.194-6.692,3.194,6.692a1.413,1.413,0,0,0,1.205.8l.073,0a1.413,1.413,0,0,0,1.208-.679l1.838-3.017,3.3.53a1.415,1.415,0,0,0,1.5-2.006l-1.77-3.71h3.555a3.31,3.31,0,0,0,3.306-3.306V348.307A3.311,3.311,0,0,0,385.945,345Zm-18.673,62.431-1.246-2.047a1.41,1.41,0,0,0-1.433-.66l-2.116.34,2.229-4.671a4.246,4.246,0,0,0,3.429,1.258,1.866,1.866,0,0,1,1.254.336,4.141,4.141,0,0,0,.37.233Zm4.858-7.063h-.011a1.849,1.849,0,0,1-.545,0l-.014,0a1.849,1.849,0,0,1-.793-.322,4.249,4.249,0,0,0-2.458-.784c-.133,0-.266.007-.4.019a1.86,1.86,0,0,1-1.866-1.078,4.252,4.252,0,0,0-.55-.885c-.009-.013-.02-.026-.03-.039l-.036-.045-.043-.047a4.236,4.236,0,0,0-1.435-1.077,1.861,1.861,0,0,1-1.078-1.866,4.246,4.246,0,0,0-.765-2.858,1.862,1.862,0,0,1,0-2.156,4.244,4.244,0,0,0,.766-2.858,1.862,1.862,0,0,1,1.078-1.867,4.238,4.238,0,0,0,2.092-2.092,1.862,1.862,0,0,1,1.867-1.078,4.248,4.248,0,0,0,2.858-.766,1.86,1.86,0,0,1,2.156,0,4.251,4.251,0,0,0,2.858.766,1.859,1.859,0,0,1,1.867,1.078,4.243,4.243,0,0,0,2.093,2.092,1.862,1.862,0,0,1,1.078,1.867,4.243,4.243,0,0,0,.766,2.857,1.862,1.862,0,0,1,0,2.157,4.244,4.244,0,0,0-.766,2.857,1.862,1.862,0,0,1-1.078,1.867,4.241,4.241,0,0,0-1.432,1.074c-.017.016-.032.034-.047.051s-.02.026-.031.038-.024.03-.035.045a4.265,4.265,0,0,0-.548.883,1.862,1.862,0,0,1-1.867,1.078,4.25,4.25,0,0,0-2.858.765,1.854,1.854,0,0,1-.793.322Zm6.969,4.356a1.408,1.408,0,0,0-1.432.661l-1.247,2.046-2.487-5.21a4.268,4.268,0,0,0,.37-.233,1.86,1.86,0,0,1,1.254-.336,4.246,4.246,0,0,0,3.429-1.258l2.229,4.671Zm7.769-6.037a.925.925,0,0,1-.924.924h-4.691l-.614-1.287c.03-.016.061-.033.093-.048a4.244,4.244,0,0,0,2.458-4.257,1.859,1.859,0,0,1,.336-1.253,4.246,4.246,0,0,0,0-4.917,1.859,1.859,0,0,1-.336-1.253,4.245,4.245,0,0,0-2.458-4.257,1.863,1.863,0,0,1-.917-.917,4.245,4.245,0,0,0-4.257-2.458,1.862,1.862,0,0,1-1.254-.336,4.244,4.244,0,0,0-4.916,0,1.862,1.862,0,0,1-1.253.336,4.244,4.244,0,0,0-4.257,2.458,1.863,1.863,0,0,1-.917.917A4.245,4.245,0,0,0,360.5,386.6a1.864,1.864,0,0,1-.336,1.253,4.248,4.248,0,0,0,0,4.916,1.866,1.866,0,0,1,.336,1.254,4.244,4.244,0,0,0,2.458,4.257c.032.015.062.032.094.048l-.614,1.287H311.306a.925.925,0,0,1-.924-.924v-50.38a.925.925,0,0,1,.924-.924h74.639a.925.925,0,0,1,.924.924Zm0,0" transform="translate(-308 -345)"/>
      <path id="Tracé_649" data-name="Tracé 649" d="M581.756,524.152a7.4,7.4,0,1,0,7.4,7.4,7.409,7.409,0,0,0-7.4-7.4Zm0,12.419a5.018,5.018,0,1,1,5.019-5.019,5.024,5.024,0,0,1-5.019,5.019Zm0,0" transform="translate(-517.997 -486.245)"/>
    </g>
  </g>
</svg>
