<svg xmlns="http://www.w3.org/2000/svg" xmlns:xlink="http://www.w3.org/1999/xlink" width="120" height="118.076" viewBox="0 0 120 118.076">
  <defs>
    <clipPath id="clip-path">
      <rect id="Rectangle_116" data-name="Rectangle 116" width="72" height="81" fill="none"/>
    </clipPath>
  </defs>
  <g id="Groupe_404" data-name="Groupe 404" transform="translate(-225 -424)">
    <path id="Tracé_639" data-name="Tracé 639" d="M302.978,411.417a63.456,63.456,0,0,0,6.733,33.661c8.781,16.684,21.367,29.271,40.1,28.393s40.394-18.441,47.419-45.37-4.39-54.444-33.076-54.444S307.076,387.122,302.978,411.417Z" transform="translate(-77.77 50.343)" fill="rgba(204,15,55,0.2)"/>
    <g id="Groupe_283" data-name="Groupe 283" transform="translate(273 461.068)">
      <path id="Tracé_660" data-name="Tracé 660" d="M420.574,354.955h25.738a1.176,1.176,0,1,0,0-2.353H420.574a1.176,1.176,0,0,0,0,2.353Zm0,0" transform="translate(-395.315 -334.814)"/>
      <path id="Tracé_661" data-name="Tracé 661" d="M420.574,410.719h25.738a1.176,1.176,0,1,0,0-2.352H420.574a1.176,1.176,0,0,0,0,2.352Zm0,0" transform="translate(-395.315 -381.818)"/>
      <path id="Tracé_662" data-name="Tracé 662" d="M371.607,352.6H369a1.176,1.176,0,0,0,0,2.353h2.6a1.176,1.176,0,0,0,0-2.353Zm0,0" transform="translate(-351.847 -334.814)"/>
      <path id="Tracé_663" data-name="Tracé 663" d="M371.607,408.367H369a1.176,1.176,0,0,0,0,2.352h2.6a1.176,1.176,0,0,0,0-2.352Zm0,0" transform="translate(-351.847 -381.818)"/>
      <path id="Tracé_664" data-name="Tracé 664" d="M371.607,464.133H369a1.176,1.176,0,0,0,0,2.352h2.6a1.176,1.176,0,0,0,0-2.352Zm0,0" transform="translate(-351.847 -428.823)"/>
      <path id="Tracé_665" data-name="Tracé 665" d="M371.607,519.9H369a1.176,1.176,0,0,0,0,2.352h2.6a1.176,1.176,0,0,0,0-2.352Zm0,0" transform="translate(-351.847 -475.827)"/>
      <path id="Tracé_666" data-name="Tracé 666" d="M371.607,575.668H369a1.176,1.176,0,0,0,0,2.352h2.6a1.176,1.176,0,0,0,0-2.352Zm0,0" transform="translate(-351.847 -522.835)"/>
      <g id="Groupe_282" data-name="Groupe 282" transform="translate(0 0)">
        <g id="Groupe_281" data-name="Groupe 281" clip-path="url(#clip-path)">
          <path id="Tracé_667" data-name="Tracé 667" d="M371.607,631.43H369a1.176,1.176,0,0,0,0,2.352h2.6a1.176,1.176,0,0,0,0-2.352Zm0,0" transform="translate(-351.847 -569.836)"/>
          <path id="Tracé_668" data-name="Tracé 668" d="M339.334,252.41a6,6,0,0,0-3.178-.531v-4.908A2.974,2.974,0,0,0,333.185,244h-54.41a2.974,2.974,0,0,0-2.97,2.971v5.33h-3.684a1.176,1.176,0,1,0,0,2.352H275.8v6.409h-3.683a1.176,1.176,0,1,0,0,2.352H275.8v6.409h-3.683a1.176,1.176,0,1,0,0,2.352H275.8v6.409h-3.683a1.176,1.176,0,1,0,0,2.352H275.8v6.409h-3.683a1.176,1.176,0,1,0,0,2.352H275.8v6.409h-3.683a1.176,1.176,0,1,0,0,2.352H275.8v6.409h-3.683a1.176,1.176,0,1,0,0,2.352H275.8v6.409h-3.683a1.176,1.176,0,1,0,0,2.352H275.8v5.331a2.974,2.974,0,0,0,2.97,2.97h24.461a1.176,1.176,0,0,0,0-2.352H278.775a.626.626,0,0,1-.618-.618V315.98h3.684a1.176,1.176,0,0,0,0-2.352h-3.684v-6.409h3.684a1.176,1.176,0,1,0,0-2.352h-3.684v-6.409h3.684a1.176,1.176,0,0,0,0-2.352h-3.684V289.7h3.684a1.176,1.176,0,0,0,0-2.352h-3.684v-6.409h3.684a1.176,1.176,0,0,0,0-2.352h-3.684v-6.409h3.684a1.176,1.176,0,0,0,0-2.352h-3.684v-6.408h3.684a1.176,1.176,0,0,0,0-2.353h-3.684v-6.409h3.684a1.176,1.176,0,0,0,0-2.352h-3.684v-5.33a.626.626,0,0,1,.618-.619h54.41a.627.627,0,0,1,.619.619v5.664a6.642,6.642,0,0,0-2.856,3.475,1.875,1.875,0,0,0-1.84.892l0,.006c-.076.128.016-.057-1.411,3a1.864,1.864,0,0,1-.587,1.258l-1.321,2.835a1.884,1.884,0,0,0,.427,2.166l-5.742,12.315H295.444a1.176,1.176,0,0,0,0,2.352h23.928l-2.988,6.409h-20.94a1.176,1.176,0,0,0,0,2.352h19.843l-2.988,6.409H295.444a1.176,1.176,0,1,0,0,2.352H311.2l-1.865,4a1.2,1.2,0,0,0-.1.382h0l-.2,2.031c-.093-.009-13.5-.006-13.588-.006a1.176,1.176,0,0,0,0,2.352H308.8l-.726,7.409a2.14,2.14,0,0,0,1.235,2.164h0a2.138,2.138,0,0,0,2.441-.441l.007-.006,4.3-4.388,3.989-4.073a1.187,1.187,0,0,0,.226-.326l13.528-29.01v7.226a1.176,1.176,0,1,0,2.352,0v-12.27l1-2.15a1.872,1.872,0,0,0,1.888-1.069l1.322-2.835a1.867,1.867,0,0,1,.587-1.258l1.322-2.835a1.872,1.872,0,0,0-.395-2.132l.372-.8a6.045,6.045,0,0,0-2.919-8.021Zm-11.027,14.933,2.272,1.06-16.341,35.044-2.273-1.06,16.342-35.044ZM310.854,310.4l2.364,1.1-2.747,2.805Zm.243-2.482.312-3.192,5.8,2.7-2.244,2.292Zm7.544-2.414-2.273-1.06L332.71,269.4l2.273,1.059Zm11.387-44.933.915-1.961.113.053h0l8.882,4.142-.914,1.961-9-4.2Zm8.311-6.027a3.7,3.7,0,0,1,1.782,4.9l-.327.7-6.678-3.113a4.019,4.019,0,0,1,2.348-2.582,3.671,3.671,0,0,1,2.875.1Zm-1.222,14.315-.074-.034h0l-8.924-4.16.915-1.961,9,4.2Zm0,0" transform="translate(-270.185 -243.274)"/>
        </g>
      </g>
      <path id="Tracé_669" data-name="Tracé 669" d="M531.365,537.367a1.176,1.176,0,0,0-1.176,1.176v30.045a.627.627,0,0,1-.619.619H505.11a1.176,1.176,0,0,0,0,2.352H529.57a2.974,2.974,0,0,0,2.971-2.971V538.543a1.176,1.176,0,0,0-1.176-1.176Zm0,0" transform="translate(-466.57 -490.551)"/>
    </g>
  </g>
</svg>
