<svg xmlns="http://www.w3.org/2000/svg" width="153" height="121.5" viewBox="0 0 153 121.5">
  <g id="Groupe_405" data-name="Groupe 405" transform="translate(-88 -449)">
    <path id="Tracé_532" data-name="Tracé 532" d="M302.978,411.417a63.456,63.456,0,0,0,6.733,33.661c8.781,16.684,21.367,29.271,40.1,28.393s40.394-18.441,47.419-45.37-4.39-54.444-33.076-54.444S307.076,387.122,302.978,411.417Z" transform="translate(-214.771 75.343)" fill="rgba(204,15,55,0.2)"/>
    <g id="Groupe_280" data-name="Groupe 280" transform="translate(151.656 479.769)">
      <path id="Tracé_650" data-name="Tracé 650" d="M552.316,308a18.195,18.195,0,0,0-15.62,27.525l-2.431,4.941-.034.127a3.141,3.141,0,0,0,3.016,3.951,3.217,3.217,0,0,0,.826-.109l.127-.034,5-2.46A18.194,18.194,0,1,0,552.316,308Zm0,33.708a15.46,15.46,0,0,1-8.329-2.423l-.635-.4-6.062,2.982a.462.462,0,0,1-.487-.487l2.965-6.026-.421-.641a15.515,15.515,0,1,1,12.969,7Zm0,0" transform="translate(-481.166 -308)"/>
      <path id="Tracé_651" data-name="Tracé 651" d="M355.028,371.1l.012-1.622a3.849,3.849,0,0,0-.031-4.874c0-.031,0-.06,0-.09V360.66a13.5,13.5,0,0,0-13.48-13.48h-6.418a1.34,1.34,0,0,0,0,2.679h6.418a10.813,10.813,0,0,1,10.8,10.8v2.489c-.038,0-.074-.012-.112-.016l-11.072-1.059a60.428,60.428,0,0,0-11.5,0l-11.071,1.059c-.038,0-.075.011-.112.016V360.66a10.813,10.813,0,0,1,10.8-10.8h.487a1.34,1.34,0,0,0,0-2.679h-.487a13.5,13.5,0,0,0-13.48,13.48v3.948a3.852,3.852,0,0,0,.039,4.948,1.5,1.5,0,0,0-.015.182l-.011,1.431a6.9,6.9,0,0,0,.482,13.678A19.684,19.684,0,0,0,330.4,399.192c-.008.111-.011.222-.011.334v.9h-.581a15.646,15.646,0,0,0-15.629,15.628v8.432a4.168,4.168,0,0,0,4.163,4.163h34.674a4.168,4.168,0,0,0,4.163-4.163v-8.432a15.646,15.646,0,0,0-15.628-15.628h-.6v-.9c0-.175-.009-.346-.026-.518a19.581,19.581,0,0,0,7.325-4.03,1.34,1.34,0,1,0-1.764-2.017,16.913,16.913,0,0,1-7.271,3.734,1.333,1.333,0,0,0-.368.079,16.92,16.92,0,0,1-20.44-16.553l.074-9.245a4.235,4.235,0,0,0,.9.011l10.526-1.008a57.8,57.8,0,0,1,10.988,0l10.526,1.008c.134.013.267.019.4.019a4.166,4.166,0,0,0,.526-.038l-.07,9.242a16.89,16.89,0,0,1-2.559,8.956,1.34,1.34,0,0,0,2.273,1.419,19.521,19.521,0,0,0,2.406-5.72,1.447,1.447,0,0,0,.155.009,6.9,6.9,0,0,0,.474-13.776ZM341.551,403.11A12.964,12.964,0,0,1,354.5,416.059v8.432a1.485,1.485,0,0,1-1.484,1.483H345.39v-3.3a1.34,1.34,0,0,0-2.679,0v3.3H328.244v-3.3a1.34,1.34,0,0,0-2.679,0v3.3h-7.223a1.485,1.485,0,0,1-1.484-1.483v-8.432a12.964,12.964,0,0,1,12.949-12.949h.581v.489a5.187,5.187,0,0,0,5.181,5.182h.2a5.187,5.187,0,0,0,5.181-5.182v-.489Zm-3.276-3.51v4a2.506,2.506,0,0,1-2.5,2.5h-.2a2.506,2.506,0,0,1-2.5-2.5v-3.908a19.412,19.412,0,0,0,5.209-.091Zm-25.6-21.622a4.226,4.226,0,0,1,3.1-4.067l-.051,6.3c0,.623.031,1.238.088,1.845a4.225,4.225,0,0,1-3.14-4.078Zm39-9.658-10.526-1.007a60.428,60.428,0,0,0-11.5,0l-10.526,1.007a1.468,1.468,0,0,1-1.129-.364,1.2,1.2,0,0,1-.408-.9,1.316,1.316,0,0,1,1.247-1.261l11.071-1.06c1.823-.174,3.659-.261,5.494-.261s3.672.087,5.494.261l11.071,1.06a1.316,1.316,0,0,1,1.248,1.261,1.2,1.2,0,0,1-.409.9,1.467,1.467,0,0,1-1.129.364Zm3.182,13.864a19.6,19.6,0,0,0,.1-1.963l.049-6.436a4.217,4.217,0,0,1-.149,8.4Zm0,0" transform="translate(-310 -337.923)"/>
      <path id="Tracé_652" data-name="Tracé 652" d="M376.385,485.914a1.34,1.34,0,0,0-1.339,1.34v1.309a1.34,1.34,0,0,0,2.679,0v-1.309a1.34,1.34,0,0,0-1.34-1.34Zm0,0" transform="translate(-359.677 -443.877)"/>
      <path id="Tracé_653" data-name="Tracé 653" d="M444.96,487.254v1.309a1.34,1.34,0,0,0,2.679,0v-1.309a1.34,1.34,0,1,0-2.679,0Zm0,0" transform="translate(-413.072 -443.877)"/>
      <path id="Tracé_654" data-name="Tracé 654" d="M407.349,515.365a1.012,1.012,0,0,1-1.77,0,1.339,1.339,0,0,0-2.34,1.3,3.69,3.69,0,0,0,6.453-.007,1.34,1.34,0,1,0-2.343-1.3Zm0,0" transform="translate(-381.079 -465.842)"/>
      <path id="Tracé_655" data-name="Tracé 655" d="M370.412,456.257a1.339,1.339,0,0,0-.7-1.761,5.414,5.414,0,0,0-5.068.41,1.34,1.34,0,1,0,1.443,2.258,2.739,2.739,0,0,1,2.563-.209,1.34,1.34,0,0,0,1.761-.7Zm0,0" transform="translate(-351.262 -419.543)"/>
      <path id="Tracé_656" data-name="Tracé 656" d="M446.008,457.375a1.34,1.34,0,0,0,.723-2.469,5.414,5.414,0,0,0-5.068-.41,1.339,1.339,0,1,0,1.062,2.459,2.738,2.738,0,0,1,2.562.209,1.333,1.333,0,0,0,.721.211Zm0,0" transform="translate(-409.936 -419.543)"/>
      <path id="Tracé_657" data-name="Tracé 657" d="M434.66,620.167V622a2.763,2.763,0,0,0,2.76,2.761h4.644a2.764,2.764,0,0,0,2.76-2.761v-1.836a2.764,2.764,0,0,0-2.76-2.761H437.42a2.763,2.763,0,0,0-2.76,2.761Zm2.678,0a.082.082,0,0,1,.082-.081h4.644a.081.081,0,0,1,.081.081V622a.081.081,0,0,1-.081.081H437.42a.082.082,0,0,1-.082-.081Zm0,0" transform="translate(-405.205 -544.3)"/>
      <path id="Tracé_658" data-name="Tracé 658" d="M598.381,368.243a4.471,4.471,0,1,0,2.575,2.249,4.474,4.474,0,0,0-2.575-2.249Zm.269,4.806a1.79,1.79,0,1,1-1.124-2.267,1.793,1.793,0,0,1,1.124,2.267Zm0,0" transform="translate(-525.74 -353.83)"/>
      <path id="Tracé_659" data-name="Tracé 659" d="M586.53,354.129a2.12,2.12,0,0,0-1.238-1.136l-.309-.107a9.331,9.331,0,0,0-.017-3.514l.3-.1a2.107,2.107,0,0,0,1.248-2.824,11.751,11.751,0,0,0-6.223-6.177,2.1,2.1,0,0,0-2.81,1.256l-.105.306a9.344,9.344,0,0,0-3.511.016l-.1-.3a2.115,2.115,0,0,0-1.143-1.242,2.094,2.094,0,0,0-1.673-.008,11.745,11.745,0,0,0-6.189,6.224,2.105,2.105,0,0,0,1.264,2.814l.3.1a9.334,9.334,0,0,0,.013,3.51l-.3.1a2.1,2.1,0,0,0-1.253,2.819,11.814,11.814,0,0,0,6.188,6.246,2.108,2.108,0,0,0,2.836-1.26l.119-.354a9.35,9.35,0,0,0,3.5-.012l.1.3a2.1,2.1,0,0,0,2.815,1.254,11.747,11.747,0,0,0,6.2-6.235,2.109,2.109,0,0,0-.015-1.673Zm-6.677,5.179-.3-.871a1.341,1.341,0,0,0-1.7-.832,6.738,6.738,0,0,1-4.374.017,1.339,1.339,0,0,0-1.7.841l-.312.927a9.142,9.142,0,0,1-3.965-4.015l.875-.3a1.34,1.34,0,0,0,.831-1.7,6.744,6.744,0,0,1-.018-4.378,1.34,1.34,0,0,0-.839-1.7l-.87-.3a9.068,9.068,0,0,1,3.952-3.977l.3.871a1.339,1.339,0,0,0,1.7.83,6.738,6.738,0,0,1,4.374-.02,1.34,1.34,0,0,0,1.693-.835l.3-.875a9.068,9.068,0,0,1,3.98,3.949l-.871.3a1.338,1.338,0,0,0-.829,1.7,6.739,6.739,0,0,1,.023,4.374,1.34,1.34,0,0,0,.832,1.691l.878.3a9.071,9.071,0,0,1-3.965,3.99Zm0,0" transform="translate(-504.434 -332.517)"/>
    </g>
  </g>
</svg>
