<svg height="512" viewBox="0 0 36 58" width="512" xmlns="http://www.w3.org/2000/svg"><g id="Page-1" fill="none" fill-rule="evenodd"><g id="006---Boiler" fill-rule="nonzero"><path id="Shape" d="m34 4h-12l-.81-3.24c-.1102928-.44612239-.5104464-.75964478-.97-.76h-4.44c-.4595536.00035522-.8597072.31387761-.97.76l-.81 3.24h-12c-1.10320187.0032948-1.9967052.89679813-2 2v44c.0032948 1.1032019.89679813 1.9967052 2 2h4v5c0 .5522847.44771525 1 1 1h2c.55228475 0 1-.4477153 1-1v-5h16v5c0 .5522847.4477153 1 1 1h2c.5522847 0 1-.4477153 1-1v-5h4c1.1032019-.0032948 1.9967052-.8967981 2-2v-44c-.0032948-1.10320187-.8967981-1.9967052-2-2z" fill="#bdc3c7"/><path id="Shape" d="m36 44v6c-.0032948 1.1032019-.8967981 1.9967052-2 2h-32c-1.10320187-.0032948-1.9967052-.8967981-2-2v-6z" fill="#ecf0f1"/><g fill="#7f8c8d"><path id="Shape" d="m22 4h-8l.81-3.24c.1102928-.44612239.5104464-.75964478.97-.76h4.44c.4595536.00035522.8597072.31387761.97.76z"/><path id="Shape" d="m10 52v5c0 .5522847-.44771525 1-1 1h-2c-.55228475 0-1-.4477153-1-1v-5z"/><path id="Shape" d="m30 52v5c0 .5522847-.4477153 1-1 1h-2c-.5522847 0-1-.4477153-1-1v-5z"/></g><circle id="Oval" cx="4" cy="48" fill="#3b97d3" r="1"/><path id="Shape" d="m17 49h-8c-.55228475 0-1-.4477153-1-1s.44771525-1 1-1h8c.5522847 0 1 .4477153 1 1s-.4477153 1-1 1z" fill="#65ddb9"/><path id="Shape" d="m4 10c-.55228475 0-1-.44771525-1-1v-1c0-.55228475.44771525-1 1-1s1 .44771525 1 1v1c0 .55228475-.44771525 1-1 1z" fill="#fff"/><path id="Shape" d="m4 29c-.55228475 0-1-.4477153-1-1v-15c0-.5522847.44771525-1 1-1s1 .4477153 1 1v15c0 .5522847-.44771525 1-1 1z" fill="#fff"/></g></g></svg>