<svg id="Groupe_336" data-name="Groupe 336" xmlns="http://www.w3.org/2000/svg" width="30.073" height="30.073" viewBox="0 0 30.073 30.073">
  <g id="Groupe_335" data-name="Groupe 335" transform="translate(0 0)">
    <path id="Tracé_770" data-name="Tracé 770" d="M-130.126-134.489l-7.406-4.937a.447.447,0,0,0-.506.007l-2.418,1.718-1.4.993a30.286,30.286,0,0,1-5.764-4.606,30.322,30.322,0,0,1-4.6-5.763l2.711-3.813a.447.447,0,0,0,.008-.507l-4.939-7.406a.447.447,0,0,0-.563-.156l-2.468,1.169a.447.447,0,0,0-.222.234l-2.274,5.522a.447.447,0,0,0,.028.4l1.446,2.458a57.585,57.585,0,0,0,16.462,17.3.448.448,0,0,0,.624-.122.446.446,0,0,0-.121-.615,56.629,56.629,0,0,1-16.2-17.013l-1.333-2.267,1.867-4.534.445.68a.447.447,0,0,0,.618.129h0a.446.446,0,0,0,.129-.618l-.628-.96,1.656-.785,4.554,6.829-1.174,1.652-3.266-4.993a.447.447,0,0,0-.618-.129.446.446,0,0,0-.129.618l3.458,5.285-.969,1.363a.447.447,0,0,0-.025.479,30.68,30.68,0,0,0,4.892,6.2,30.652,30.652,0,0,0,6.2,4.893.446.446,0,0,0,.479-.025l1.362-.969,7.709,5.044-4.533,1.867-2.267-1.334c-.174-.1-.339-.2-.5-.3a.446.446,0,0,0-.61.145.447.447,0,0,0,.147.619c.163.1.332.2.509.3l2.458,1.447a.451.451,0,0,0,.227.061.445.445,0,0,0,.17-.034l5.522-2.274a.449.449,0,0,0,.234-.222l1.17-2.47a.446.446,0,0,0-.156-.562Zm-1.6,2.187-7.7-5.035,1.653-1.174,6.829,4.552Zm0,0" transform="translate(160 159)" fill="#cc0f37"/>
  </g>
</svg>
